<svg xmlns="http://www.w3.org/2000/svg" viewBox="0 0 360 140" width="1440" height="560"><path transform="translate(.5 .5)" fill="none" stroke="#7d8b99" stroke-width="0.46" stroke-linecap="round" stroke-dasharray="0 1" d="M143 0h7M97 1h20M133 1h1M136 1h21M89 2h23M114 2h1M119 2h39M160 2h0M163 2h4M237 2h0M84 3h6M100 3h10M113 3h49M226 3h0M228 3h1M239 3h1M272 3h4M84 4h21M115 4h45M191 4h1M194 4h0M196 4h2M200 4h5M257 4h0M273 4h6M67 5h3M75 5h4M82 5h2M87 5h3M93 5h10M107 5h51M191 5h2M195 5h3M200 5h1M280 5h4M63 6h0M67 6h2M74 6h0M84 6h2M89 6h0M92 6h1M97 6h4M110 6h0M114 6h45M194 6h3M201 6h0M203 6h0M283 6h2M59 7h1M62 7h0M70 7h0M75 7h1M79 7h2M84 7h4M91 7h10M111 7h46M245 7h3M281 7h11M64 8h9M80 8h1M84 8h1M88 8h4M94 8h5M122 8h35M159 8h1M238 8h4M270 8h23M317 8h4M323 8h1M326 8h0M58 9h0M66 9h1M82 9h0M91 9h2M122 9h0M124 9h36M236 9h1M265 9h0M267 9h23M292 9h0M56 10h8M73 10h1M78 10h3M84 10h4M92 10h1M96 10h6M124 10h30M156 10h3M234 10h2M250 10h0M255 10h0M261 10h25M290 10h2M294 10h4M303 10h2M321 10h1M55 11h12M69 11h1M72 11h2M78 11h5M85 11h1M90 11h8M101 11h3M124 11h30M156 11h1M233 11h2M249 11h3M255 11h0M257 11h0M261 11h47M321 11h4M0 12h1M56 12h2M62 12h13M81 12h0M84 12h2M90 12h15M107 12h0M124 12h1M127 12h0M129 12h27M233 12h2M248 12h3M253 12h1M257 12h5M264 12h44M312 12h0M315 12h3M320 12h10M20 13h7M29 13h1M68 13h8M84 13h3M91 13h20M126 13h1M129 13h23M156 13h0M203 13h1M206 13h4M247 13h5M254 13h8M264 13h75M17 14h23M47 14h0M49 14h6M57 14h1M63 14h13M81 14h3M86 14h3M94 14h2M101 14h0M103 14h8M126 14h1M129 14h26M197 14h15M240 14h3M248 14h4M254 14h93M351 14h6M0 15h1M14 15h51M72 15h0M74 15h1M83 15h0M86 15h2M90 15h1M94 15h3M106 15h6M127 15h19M148 15h3M195 15h22M224 15h1M233 15h0M235 15h3M240 15h7M249 15h7M258 15h101M0 16h4M16 16h67M85 16h6M94 16h4M103 16h1M108 16h7M126 16h2M130 16h16M195 16h25M224 16h0M228 16h23M254 16h105M0 17h8M15 17h0M20 17h51M73 17h19M95 17h1M106 17h11M126 17h18M163 17h0M193 17h19M215 17h5M224 17h25M252 17h107M0 18h2M4 18h3M12 18h78M92 18h0M94 18h0M106 18h6M115 18h0M127 18h12M156 18h0M158 18h7M193 18h8M205 18h9M220 18h139M6 19h1M19 19h72M94 19h3M102 19h1M107 19h6M128 19h10M158 19h6M191 19h9M204 19h10M217 19h139M8 20h1M19 20h69M94 20h1M109 20h1M112 20h2M129 20h9M160 20h1M188 20h1M191 20h7M202 20h156M15 21h71M96 21h1M102 21h0M111 21h2M115 21h0M130 21h7M186 21h11M201 21h141M345 21h11M358 21h0M14 22h15M31 22h54M102 22h5M131 22h5M185 22h11M202 22h134M340 22h1M344 22h8M15 23h12M29 23h2M34 23h50M102 23h7M135 23h0M185 23h12M202 23h3M207 23h127M342 23h5M349 23h1M18 24h7M28 24h0M40 24h44M102 24h7M115 24h0M185 24h4M191 24h6M205 24h1M208 24h120M332 24h2M340 24h2M23 25h2M27 25h0M43 25h43M102 25h9M113 25h3M175 25h1M186 25h2M191 25h5M202 25h0M204 25h116M339 25h2M22 26h1M25 26h2M44 26h1M47 26h40M103 26h14M173 26h4M192 26h4M198 26h0M202 26h0M204 26h115M337 26h5M20 27h1M46 27h0M48 27h43M103 27h14M175 27h1M188 27h2M193 27h3M201 27h116M336 27h6M19 28h0M47 28h46M103 28h16M175 28h2M188 28h1M191 28h0M193 28h0M201 28h114M336 28h5M15 29h0M50 29h47M100 29h22M172 29h2M176 29h2M189 29h0M193 29h0M196 29h2M200 29h116M336 29h4M47 30h0M51 30h46M101 30h22M170 30h3M177 30h2M187 30h133M336 30h3M51 31h46M101 31h22M170 31h3M176 31h5M185 31h135M322 31h0M336 31h2M52 32h70M124 32h0M176 32h3M184 32h136M322 32h0M336 32h1M52 33h0M54 33h65M123 33h0M175 33h0M182 33h137M322 33h1M53 34h1M56 34h56M116 34h1M122 34h1M125 34h0M178 34h0M180 34h140M322 34h1M56 35h0M58 35h52M112 35h3M122 35h3M175 35h144M322 35h0M56 36h0M58 36h56M124 36h2M178 36h140M322 36h0M56 37h58M116 37h0M119 37h0M178 37h32M212 37h3M218 37h10M233 37h84M323 37h0M56 38h62M179 38h12M194 38h15M213 38h1M218 38h9M233 38h83M56 39h55M114 39h1M179 39h12M195 39h13M218 39h8M230 39h85M322 39h0M56 40h53M172 40h2M178 40h8M190 40h3M197 40h11M220 40h7M231 40h83M321 40h3M56 41h52M171 41h11M189 41h0M191 41h2M198 41h8M222 41h5M233 41h77M322 41h0M56 42h52M171 42h10M193 42h2M200 42h7M212 42h3M222 42h6M234 42h75M56 43h49M171 43h9M188 43h1M195 43h2M199 43h4M209 43h20M233 43h67M302 43h6M320 43h1M56 44h49M171 44h8M182 44h0M188 44h1M196 44h0M200 44h2M207 44h21M234 44h64M301 44h1M305 44h2M320 44h1M57 45h47M151 45h0M171 45h8M196 45h0M201 45h1M206 45h22M234 45h63M305 45h2M320 45h1M58 46h45M171 46h7M193 46h1M202 46h0M207 46h21M234 46h64M300 46h0M306 46h2M319 46h1M58 47h45M174 47h0M181 47h9M209 47h1M212 47h1M216 47h84M306 47h2M316 47h4M59 48h44M174 48h0M179 48h11M216 48h83M306 48h2M313 48h6M60 49h42M173 49h16M216 49h83M306 49h0M311 49h2M315 49h1M62 50h38M172 50h18M215 50h85M306 50h0M310 50h3M63 51h35M171 51h23M200 51h2M215 51h85M311 51h0M63 52h1M66 52h32M170 52h25M200 52h6M214 52h86M310 52h0M64 53h0M67 53h31M170 53h28M200 53h100M65 54h1M68 54h16M89 54h0M97 54h1M170 54h41M213 54h14M231 54h69M66 55h0M68 55h15M97 55h1M169 55h44M215 55h12M231 55h70M65 56h2M69 56h13M97 56h2M167 56h46M216 56h12M233 56h67M67 57h1M71 57h11M98 57h1M166 57h47M216 57h13M237 57h62M68 58h0M71 58h11M99 58h0M165 58h49M217 58h12M239 58h6M247 58h52M68 59h0M72 59h9M165 59h49M217 59h13M234 59h2M247 59h50M301 59h0M70 60h0M73 60h8M164 60h50M219 60h19M248 60h48M300 60h0M74 61h7M96 61h0M98 61h3M164 61h51M219 61h20M250 61h44M300 61h0M75 62h6M91 62h0M101 62h1M163 62h53M219 62h19M250 62h1M253 62h13M272 62h15M289 62h1M75 63h7M90 63h2M103 63h1M164 63h52M220 63h18M253 63h13M273 63h13M290 63h0M24 64h0M75 64h8M89 64h3M107 64h2M164 64h52M221 64h16M253 64h11M274 64h11M289 64h1M76 65h8M87 65h4M106 65h5M164 65h53M221 65h15M253 65h10M274 65h11M289 65h0M79 66h12M164 66h54M222 66h12M253 66h9M275 66h11M300 66h1M81 67h10M164 67h54M223 67h9M253 67h8M274 67h2M278 67h9M300 67h1M87 68h8M163 68h56M223 68h8M254 68h5M278 68h10M300 68h0M88 69h8M163 69h57M223 69h5M254 69h5M278 69h10M300 69h1M90 70h5M163 70h58M223 70h3M255 70h4M278 70h1M281 70h7M300 70h0M302 70h1M93 71h2M163 71h59M233 71h0M255 71h4M279 71h0M282 71h6M304 71h0M94 72h1M107 72h0M110 72h0M165 72h57M230 72h0M256 72h3M279 72h0M283 72h5M302 72h0M304 72h1M94 73h2M105 73h2M109 73h4M116 73h0M165 73h58M225 73h5M256 73h3M278 73h0M284 73h3M299 73h0M96 74h1M100 74h0M104 74h3M109 74h9M166 74h64M256 74h2M260 74h0M278 74h0M285 74h0M298 74h0M305 74h0M96 75h3M102 75h17M167 75h62M257 75h0M260 75h0M278 75h1M303 75h2M99 76h0M102 76h18M168 76h61M260 76h1M279 76h0M304 76h2M103 77h18M169 77h13M184 77h44M260 77h1M280 77h1M297 77h0M304 77h1M102 78h24M170 78h9M185 78h43M275 78h0M280 78h2M295 78h3M103 79h24M172 79h0M186 79h0M189 79h38M276 79h1M281 79h1M294 79h4M103 80h25M190 80h36M277 80h1M281 80h1M293 80h3M102 81h26M190 81h35M278 81h1M282 81h1M291 81h6M308 81h0M101 82h28M190 82h33M279 82h2M283 82h0M289 82h8M308 82h0M100 83h28M189 83h33M279 83h3M289 83h8M301 83h3M308 83h0M100 84h31M189 84h32M280 84h2M284 84h0M289 84h8M307 84h0M310 84h0M312 84h0M99 85h27M128 85h2M132 85h2M189 85h32M281 85h2M290 85h6M299 85h2M307 85h0M312 85h1M99 86h30M131 86h3M190 86h30M281 86h5M290 86h6M299 86h2M316 86h4M100 87h40M191 87h28M282 87h3M295 87h0M299 87h0M301 87h0M306 87h0M310 87h0M313 87h10M99 88h42M192 88h26M283 88h2M316 88h8M99 89h45M192 89h26M284 89h1M299 89h0M314 89h0M318 89h7M328 89h0M330 89h1M100 90h44M192 90h26M286 90h2M319 90h8M335 90h0M100 91h44M193 91h25M287 91h5M311 91h0M318 91h8M101 92h43M193 92h25M295 92h5M302 92h1M306 92h0M320 92h2M326 92h1M102 93h41M193 93h26M299 93h0M304 93h0M327 93h1M330 93h0M102 94h41M194 94h26M330 94h0M103 95h39M194 95h25M310 95h0M322 95h0M333 95h0M103 96h38M193 96h27M229 96h0M311 96h5M322 96h0M7 97h0M104 97h36M193 97h27M229 97h0M310 97h5M322 97h1M104 98h36M192 98h28M228 98h1M305 98h2M309 98h6M322 98h2M105 99h35M192 99h28M227 99h2M304 99h11M321 99h3M107 100h33M192 100h27M224 100h5M303 100h14M319 100h0M321 100h3M347 100h0M359 100h0M30 101h0M109 101h31M192 101h25M224 101h4M302 101h17M321 101h4M110 102h29M192 102h24M224 102h4M302 102h23M110 103h29M193 103h21M224 103h4M301 103h26M110 104h29M193 104h21M224 104h4M237 104h0M298 104h30M344 104h0M110 105h28M194 105h20M223 105h4M295 105h33M345 105h0M110 106h27M194 106h21M223 106h4M294 106h35M110 107h24M194 107h20M224 107h3M294 107h36M109 108h23M195 108h19M224 108h2M293 108h38M109 109h21M195 109h17M225 109h0M294 109h38M109 110h21M195 110h17M293 110h39M109 111h22M195 111h17M294 111h39M109 112h21M196 112h15M295 112h38M109 113h20M197 113h13M295 113h37M108 114h21M197 114h13M295 114h37M108 115h19M198 115h11M296 115h36M109 116h18M198 116h10M296 116h9M314 116h17M108 117h12M122 117h4M198 117h8M296 117h7M315 117h1M318 117h12M108 118h13M123 118h2M199 118h0M296 118h2M315 118h0M317 118h13M107 119h15M318 119h11M353 119h0M107 120h15M320 120h9M354 120h0M106 121h16M320 121h9M355 121h0M106 122h15M323 122h0M325 122h1M355 122h2M107 123h10M354 123h2M106 124h11M355 124h1M106 125h8M325 125h2M352 125h1M355 125h0M107 126h8M325 126h2M351 126h2M107 127h7M326 127h0M350 127h2M105 128h0M107 128h7M348 128h2M106 129h6M347 129h3M105 130h7M348 130h1M106 131h7M104 132h0M106 132h6M107 133h4M249 133h0M105 134h5M106 135h4M120 135h1M106 136h4M106 137h2M111 137h0M108 138h5M143 138h0"/></svg>
